<mxfile host="app.diagrams.net" modified="2021-12-13T18:51:57.811Z" agent="5.0 (Macintosh; Intel Mac OS X 10_15_7) AppleWebKit/537.36 (KHTML, like Gecko) Chrome/96.0.4664.93 Safari/537.36" etag="TlplsefORmvkLOZD8XQS" version="15.8.9" type="github">
  <diagram id="McnBqX_8OXEuc_d459IT" name="Page-1">
    <mxGraphModel dx="1278" dy="828" grid="1" gridSize="10" guides="1" tooltips="1" connect="1" arrows="1" fold="1" page="1" pageScale="1" pageWidth="850" pageHeight="1100" math="0" shadow="0">
      <root>
        <mxCell id="0" />
        <mxCell id="1" parent="0" />
        <mxCell id="wLzdfKrcWUK0gIP68M67-1" value="" style="rounded=0;whiteSpace=wrap;html=1;direction=south;" vertex="1" parent="1">
          <mxGeometry x="360" y="160" width="90" height="550" as="geometry" />
        </mxCell>
        <mxCell id="wLzdfKrcWUK0gIP68M67-2" value="CMS" style="text;html=1;strokeColor=none;fillColor=none;align=center;verticalAlign=middle;whiteSpace=wrap;rounded=0;" vertex="1" parent="1">
          <mxGeometry x="375" y="390" width="60" height="30" as="geometry" />
        </mxCell>
        <mxCell id="wLzdfKrcWUK0gIP68M67-4" value="" style="rounded=0;whiteSpace=wrap;html=1;direction=south;" vertex="1" parent="1">
          <mxGeometry x="460" y="160" width="40" height="550" as="geometry" />
        </mxCell>
        <mxCell id="wLzdfKrcWUK0gIP68M67-5" value="" style="rounded=0;whiteSpace=wrap;html=1;direction=south;" vertex="1" parent="1">
          <mxGeometry x="520" y="160" width="40" height="550" as="geometry" />
        </mxCell>
        <mxCell id="wLzdfKrcWUK0gIP68M67-6" value="API&lt;br&gt;Layer" style="text;html=1;strokeColor=none;fillColor=none;align=center;verticalAlign=middle;whiteSpace=wrap;rounded=0;" vertex="1" parent="1">
          <mxGeometry x="450" y="410" width="60" height="30" as="geometry" />
        </mxCell>
        <mxCell id="wLzdfKrcWUK0gIP68M67-7" value="UI&lt;br&gt;Layer" style="text;html=1;strokeColor=none;fillColor=none;align=center;verticalAlign=middle;whiteSpace=wrap;rounded=0;" vertex="1" parent="1">
          <mxGeometry x="510" y="410" width="60" height="30" as="geometry" />
        </mxCell>
        <mxCell id="wLzdfKrcWUK0gIP68M67-63" style="edgeStyle=orthogonalEdgeStyle;rounded=0;orthogonalLoop=1;jettySize=auto;html=1;exitX=0;exitY=0.5;exitDx=0;exitDy=0;entryX=0.092;entryY=-0.005;entryDx=0;entryDy=0;entryPerimeter=0;" edge="1" parent="1" source="wLzdfKrcWUK0gIP68M67-10" target="wLzdfKrcWUK0gIP68M67-5">
          <mxGeometry relative="1" as="geometry">
            <mxPoint x="570" y="210" as="targetPoint" />
          </mxGeometry>
        </mxCell>
        <mxCell id="wLzdfKrcWUK0gIP68M67-10" value="" style="rounded=0;whiteSpace=wrap;html=1;" vertex="1" parent="1">
          <mxGeometry x="650" y="115" width="120" height="135" as="geometry" />
        </mxCell>
        <mxCell id="wLzdfKrcWUK0gIP68M67-11" value="Shopify Integration Editors" style="text;html=1;strokeColor=none;fillColor=none;align=center;verticalAlign=middle;whiteSpace=wrap;rounded=0;" vertex="1" parent="1">
          <mxGeometry x="665" y="125" width="90" height="30" as="geometry" />
        </mxCell>
        <mxCell id="wLzdfKrcWUK0gIP68M67-12" value="Actor" style="shape=umlActor;verticalLabelPosition=bottom;verticalAlign=top;html=1;outlineConnect=0;" vertex="1" parent="1">
          <mxGeometry x="670" y="165" width="30" height="60" as="geometry" />
        </mxCell>
        <mxCell id="wLzdfKrcWUK0gIP68M67-13" value="Actor" style="shape=umlActor;verticalLabelPosition=bottom;verticalAlign=top;html=1;outlineConnect=0;" vertex="1" parent="1">
          <mxGeometry x="710" y="165" width="30" height="60" as="geometry" />
        </mxCell>
        <mxCell id="wLzdfKrcWUK0gIP68M67-27" value="" style="rounded=0;whiteSpace=wrap;html=1;direction=south;" vertex="1" parent="1">
          <mxGeometry x="290" y="160" width="40" height="550" as="geometry" />
        </mxCell>
        <mxCell id="wLzdfKrcWUK0gIP68M67-28" value="API&lt;br&gt;Layer" style="text;html=1;strokeColor=none;fillColor=none;align=center;verticalAlign=middle;whiteSpace=wrap;rounded=0;" vertex="1" parent="1">
          <mxGeometry x="280" y="410" width="60" height="30" as="geometry" />
        </mxCell>
        <mxCell id="wLzdfKrcWUK0gIP68M67-78" style="edgeStyle=orthogonalEdgeStyle;rounded=0;orthogonalLoop=1;jettySize=auto;html=1;" edge="1" parent="1" source="wLzdfKrcWUK0gIP68M67-29" target="wLzdfKrcWUK0gIP68M67-27">
          <mxGeometry relative="1" as="geometry" />
        </mxCell>
        <mxCell id="wLzdfKrcWUK0gIP68M67-29" value="" style="rounded=0;whiteSpace=wrap;html=1;" vertex="1" parent="1">
          <mxGeometry x="110" y="277.5" width="110" height="315" as="geometry" />
        </mxCell>
        <mxCell id="wLzdfKrcWUK0gIP68M67-41" value="Recharge Docs" style="text;html=1;strokeColor=none;fillColor=none;align=center;verticalAlign=middle;whiteSpace=wrap;rounded=0;" vertex="1" parent="1">
          <mxGeometry x="135" y="292.5" width="60" height="30" as="geometry" />
        </mxCell>
        <mxCell id="wLzdfKrcWUK0gIP68M67-64" style="edgeStyle=orthogonalEdgeStyle;rounded=0;orthogonalLoop=1;jettySize=auto;html=1;exitX=0;exitY=0.5;exitDx=0;exitDy=0;entryX=0.25;entryY=0;entryDx=0;entryDy=0;" edge="1" parent="1" source="wLzdfKrcWUK0gIP68M67-51" target="wLzdfKrcWUK0gIP68M67-5">
          <mxGeometry relative="1" as="geometry" />
        </mxCell>
        <mxCell id="wLzdfKrcWUK0gIP68M67-51" value="" style="rounded=0;whiteSpace=wrap;html=1;" vertex="1" parent="1">
          <mxGeometry x="650" y="270" width="120" height="135" as="geometry" />
        </mxCell>
        <mxCell id="wLzdfKrcWUK0gIP68M67-52" value="BigCommerce Integration Editors" style="text;html=1;strokeColor=none;fillColor=none;align=center;verticalAlign=middle;whiteSpace=wrap;rounded=0;" vertex="1" parent="1">
          <mxGeometry x="665" y="280" width="90" height="30" as="geometry" />
        </mxCell>
        <mxCell id="wLzdfKrcWUK0gIP68M67-53" value="Actor" style="shape=umlActor;verticalLabelPosition=bottom;verticalAlign=top;html=1;outlineConnect=0;" vertex="1" parent="1">
          <mxGeometry x="670" y="320" width="30" height="60" as="geometry" />
        </mxCell>
        <mxCell id="wLzdfKrcWUK0gIP68M67-54" value="Actor" style="shape=umlActor;verticalLabelPosition=bottom;verticalAlign=top;html=1;outlineConnect=0;" vertex="1" parent="1">
          <mxGeometry x="710" y="320" width="30" height="60" as="geometry" />
        </mxCell>
        <mxCell id="wLzdfKrcWUK0gIP68M67-66" style="edgeStyle=orthogonalEdgeStyle;rounded=0;orthogonalLoop=1;jettySize=auto;html=1;" edge="1" parent="1" source="wLzdfKrcWUK0gIP68M67-55" target="wLzdfKrcWUK0gIP68M67-5">
          <mxGeometry relative="1" as="geometry" />
        </mxCell>
        <mxCell id="wLzdfKrcWUK0gIP68M67-55" value="" style="rounded=0;whiteSpace=wrap;html=1;" vertex="1" parent="1">
          <mxGeometry x="650" y="430" width="120" height="135" as="geometry" />
        </mxCell>
        <mxCell id="wLzdfKrcWUK0gIP68M67-56" value="Custom Integration Editors" style="text;html=1;strokeColor=none;fillColor=none;align=center;verticalAlign=middle;whiteSpace=wrap;rounded=0;" vertex="1" parent="1">
          <mxGeometry x="665" y="440" width="90" height="30" as="geometry" />
        </mxCell>
        <mxCell id="wLzdfKrcWUK0gIP68M67-57" value="Actor" style="shape=umlActor;verticalLabelPosition=bottom;verticalAlign=top;html=1;outlineConnect=0;" vertex="1" parent="1">
          <mxGeometry x="670" y="480" width="30" height="60" as="geometry" />
        </mxCell>
        <mxCell id="wLzdfKrcWUK0gIP68M67-58" value="Actor" style="shape=umlActor;verticalLabelPosition=bottom;verticalAlign=top;html=1;outlineConnect=0;" vertex="1" parent="1">
          <mxGeometry x="710" y="480" width="30" height="60" as="geometry" />
        </mxCell>
        <mxCell id="wLzdfKrcWUK0gIP68M67-67" style="edgeStyle=orthogonalEdgeStyle;rounded=0;orthogonalLoop=1;jettySize=auto;html=1;entryX=0.75;entryY=0;entryDx=0;entryDy=0;" edge="1" parent="1" source="wLzdfKrcWUK0gIP68M67-59" target="wLzdfKrcWUK0gIP68M67-5">
          <mxGeometry relative="1" as="geometry" />
        </mxCell>
        <mxCell id="wLzdfKrcWUK0gIP68M67-59" value="" style="rounded=0;whiteSpace=wrap;html=1;" vertex="1" parent="1">
          <mxGeometry x="650" y="609" width="120" height="135" as="geometry" />
        </mxCell>
        <mxCell id="wLzdfKrcWUK0gIP68M67-60" value="Administrators" style="text;html=1;strokeColor=none;fillColor=none;align=center;verticalAlign=middle;whiteSpace=wrap;rounded=0;" vertex="1" parent="1">
          <mxGeometry x="665" y="619" width="90" height="30" as="geometry" />
        </mxCell>
        <mxCell id="wLzdfKrcWUK0gIP68M67-61" value="Actor" style="shape=umlActor;verticalLabelPosition=bottom;verticalAlign=top;html=1;outlineConnect=0;" vertex="1" parent="1">
          <mxGeometry x="670" y="659" width="30" height="60" as="geometry" />
        </mxCell>
        <mxCell id="wLzdfKrcWUK0gIP68M67-62" value="Actor" style="shape=umlActor;verticalLabelPosition=bottom;verticalAlign=top;html=1;outlineConnect=0;" vertex="1" parent="1">
          <mxGeometry x="710" y="659" width="30" height="60" as="geometry" />
        </mxCell>
        <mxCell id="wLzdfKrcWUK0gIP68M67-69" value="" style="rounded=0;whiteSpace=wrap;html=1;" vertex="1" parent="1">
          <mxGeometry x="125" y="352.5" width="80" height="40" as="geometry" />
        </mxCell>
        <mxCell id="wLzdfKrcWUK0gIP68M67-71" value="Shopify Integration" style="text;html=1;strokeColor=none;fillColor=none;align=center;verticalAlign=middle;whiteSpace=wrap;rounded=0;" vertex="1" parent="1">
          <mxGeometry x="135" y="357.5" width="60" height="30" as="geometry" />
        </mxCell>
        <mxCell id="wLzdfKrcWUK0gIP68M67-74" value="" style="rounded=0;whiteSpace=wrap;html=1;" vertex="1" parent="1">
          <mxGeometry x="125" y="482.5" width="80" height="40" as="geometry" />
        </mxCell>
        <mxCell id="wLzdfKrcWUK0gIP68M67-75" value="Custom&lt;br&gt;Integration" style="text;html=1;strokeColor=none;fillColor=none;align=center;verticalAlign=middle;whiteSpace=wrap;rounded=0;" vertex="1" parent="1">
          <mxGeometry x="135" y="487.5" width="60" height="30" as="geometry" />
        </mxCell>
        <mxCell id="wLzdfKrcWUK0gIP68M67-76" value="" style="rounded=0;whiteSpace=wrap;html=1;" vertex="1" parent="1">
          <mxGeometry x="125" y="422.5" width="80" height="40" as="geometry" />
        </mxCell>
        <mxCell id="wLzdfKrcWUK0gIP68M67-77" value="BigComm&lt;br&gt;Integration" style="text;html=1;strokeColor=none;fillColor=none;align=center;verticalAlign=middle;whiteSpace=wrap;rounded=0;" vertex="1" parent="1">
          <mxGeometry x="135" y="427.5" width="60" height="30" as="geometry" />
        </mxCell>
      </root>
    </mxGraphModel>
  </diagram>
</mxfile>
